999
dxfrw 0.5.11
0
SECTION
2
HEADER
9
$ACADVER
1
AC1021
9
$HANDSEED
5
20000
9
$DWGCODEPAGE
3
ANSI_1252
9
$INSBASE
10
0
20
0
30
0
9
$EXTMIN
10
-123.233257824
20
-278.443113645
30
0
9
$EXTMAX
10
373.848207503
20
132.481426118
30
0
9
$LIMMIN
10
0
20
0
9
$LIMMAX
10
420
20
297
9
$ORTHOMODE
70
0
9
$LTSCALE
40
1
9
$TEXTSTYLE
7
STANDARD
9
$CLAYER
8
RadiusArms
9
$DIMASZ
40
2.5
9
$DIMLFAC
40
1
9
$DIMSCALE
40
1
9
$DIMEXO
40
0.625
9
$DIMEXE
40
1.25
9
$DIMTXT
40
2.5
9
$DIMTSZ
40
0
9
$DIMAUNIT
70
0
9
$DIMADEC
70
0
9
$DIMLUNIT
70
2
9
$DIMSTYLE
2
STANDARD
9
$DIMGAP
40
0.625
9
$DIMTIH
70
0
9
$LUNITS
70
2
9
$LUPREC
70
4
9
$AUNITS
70
0
9
$AUPREC
70
2
9
$SPLINESEGS
70
8
9
$SNAPSTYLE
70
0
9
$PINSBASE
10
0
20
0
30
0
9
$PLIMMIN
10
0
20
0
9
$PLIMMAX
10
210
20
297
9
$INSUNITS
70
4
9
$PSVPSCALE
40
1
0
ENDSEC
0
SECTION
2
CLASSES
0
ENDSEC
0
SECTION
2
TABLES
0
TABLE
2
VPORT
5
8
330
0
100
AcDbSymbolTable
70
1
0
VPORT
5
31
330
2
100
AcDbSymbolTableRecord
100
AcDbViewportTableRecord
2
*ACTIVE
70
0
10
0
20
0
11
1
21
1
12
296.630859375
22
69.2749023438
13
0
23
0
14
10
24
10
15
10
25
10
16
0
26
0
36
1
17
0
27
0
37
0
40
478.515625
41
1.97704081633
42
50
43
0
44
0
50
0
51
0
71
0
72
100
73
1
74
3
75
0
76
1
77
0
78
0
281
0
65
1
110
0
120
0
130
0
111
1
121
0
131
0
112
0
122
1
132
0
79
0
146
0
348
10020
60
7
61
5
292
1
282
1
141
0
142
0
63
250
421
3358443
0
ENDTAB
0
TABLE
2
LTYPE
5
5
330
0
100
AcDbSymbolTable
70
4
0
LTYPE
5
14
330
5
100
AcDbSymbolTableRecord
100
AcDbLinetypeTableRecord
2
ByBlock
70
0
3

72
65
73
0
40
0
0
LTYPE
5
15
330
5
100
AcDbSymbolTableRecord
100
AcDbLinetypeTableRecord
2
ByLayer
70
0
3

72
65
73
0
40
0
0
LTYPE
5
16
330
5
100
AcDbSymbolTableRecord
100
AcDbLinetypeTableRecord
2
Continuous
70
0
3
Solid line
72
65
73
0
40
0
0
LTYPE
5
32
330
5
100
AcDbSymbolTableRecord
100
AcDbLinetypeTableRecord
2
DOT
70
0
3
Dot . . . . . . . . . . . . . . . . . . . . . .
72
65
73
2
40
6.35
49
0
74
0
49
-6.35
74
0
0
LTYPE
5
33
330
5
100
AcDbSymbolTableRecord
100
AcDbLinetypeTableRecord
2
DOT2
70
0
3
Dot (.5x) .....................................
72
65
73
2
40
3.175
49
0
74
0
49
-3.175
74
0
0
LTYPE
5
34
330
5
100
AcDbSymbolTableRecord
100
AcDbLinetypeTableRecord
2
DOTX2
70
0
3
Dot (2x) .  .  .  .  .  .  .  .  .  .  .  .  .
72
65
73
2
40
12.7
49
0
74
0
49
-12.7
74
0
0
LTYPE
5
35
330
5
100
AcDbSymbolTableRecord
100
AcDbLinetypeTableRecord
2
DASHED
70
0
3
Dot . . . . . . . . . . . . . . . . . . . . . .
72
65
73
2
40
19.05
49
12.7
74
0
49
-6.35
74
0
0
LTYPE
5
36
330
5
100
AcDbSymbolTableRecord
100
AcDbLinetypeTableRecord
2
DASHED2
70
0
3
Dashed (.5x) _ _ _ _ _ _ _ _ _ _ _ _ _ _ _ _ _
72
65
73
2
40
9.525
49
6.35
74
0
49
-3.175
74
0
0
LTYPE
5
37
330
5
100
AcDbSymbolTableRecord
100
AcDbLinetypeTableRecord
2
DASHEDX2
70
0
3
Dashed (2x) ____  ____  ____  ____  ____  ___
72
65
73
2
40
38.1
49
25.4
74
0
49
-12.7
74
0
0
LTYPE
5
38
330
5
100
AcDbSymbolTableRecord
100
AcDbLinetypeTableRecord
2
DASHDOT
70
0
3
Dash dot __ . __ . __ . __ . __ . __ . __ . __
72
65
73
4
40
25.4
49
12.7
74
0
49
-6.35
74
0
49
0
74
0
49
-6.35
74
0
0
LTYPE
5
39
330
5
100
AcDbSymbolTableRecord
100
AcDbLinetypeTableRecord
2
DASHDOT2
70
0
3
Dash dot (.5x) _._._._._._._._._._._._._._._.
72
65
73
4
40
12.7
49
6.35
74
0
49
-3.175
74
0
49
0
74
0
49
-3.175
74
0
0
LTYPE
5
3A
330
5
100
AcDbSymbolTableRecord
100
AcDbLinetypeTableRecord
2
DASHDOTX2
70
0
3
Dash dot (2x) ____  .  ____  .  ____  .  ___
72
65
73
4
40
50.8
49
25.4
74
0
49
-12.7
74
0
49
0
74
0
49
-12.7
74
0
0
LTYPE
5
3B
330
5
100
AcDbSymbolTableRecord
100
AcDbLinetypeTableRecord
2
DIVIDE
70
0
3
Divide ____ . . ____ . . ____ . . ____ . . ____
72
65
73
6
40
31.75
49
12.7
74
0
49
-6.35
74
0
49
0
74
0
49
-6.35
74
0
49
0
74
0
49
-6.35
74
0
0
LTYPE
5
3C
330
5
100
AcDbSymbolTableRecord
100
AcDbLinetypeTableRecord
2
DIVIDE2
70
0
3
Divide (.5x) __..__..__..__..__..__..__..__.._
72
65
73
6
40
15.875
49
6.35
74
0
49
-3.175
74
0
49
0
74
0
49
-3.175
74
0
49
0
74
0
49
-3.175
74
0
0
LTYPE
5
3D
330
5
100
AcDbSymbolTableRecord
100
AcDbLinetypeTableRecord
2
DIVIDEX2
70
0
3
Divide (2x) ________  .  .  ________  .  .  _
72
65
73
6
40
63.5
49
25.4
74
0
49
-12.7
74
0
49
0
74
0
49
-12.7
74
0
49
0
74
0
49
-12.7
74
0
0
LTYPE
5
3E
330
5
100
AcDbSymbolTableRecord
100
AcDbLinetypeTableRecord
2
BORDER
70
0
3
Border __ __ . __ __ . __ __ . __ __ . __ __ .
72
65
73
6
40
44.45
49
12.7
74
0
49
-6.35
74
0
49
12.7
74
0
49
-6.35
74
0
49
0
74
0
49
-6.35
74
0
0
LTYPE
5
3F
330
5
100
AcDbSymbolTableRecord
100
AcDbLinetypeTableRecord
2
BORDER2
70
0
3
Border (.5x) __.__.__.__.__.__.__.__.__.__.__.
72
65
73
6
40
22.225
49
6.35
74
0
49
-3.175
74
0
49
6.35
74
0
49
-3.175
74
0
49
0
74
0
49
-3.175
74
0
0
LTYPE
5
40
330
5
100
AcDbSymbolTableRecord
100
AcDbLinetypeTableRecord
2
BORDERX2
70
0
3
Border (2x) ____  ____  .  ____  ____  .  ___
72
65
73
6
40
88.9
49
25.4
74
0
49
-12.7
74
0
49
25.4
74
0
49
-12.7
74
0
49
0
74
0
49
-12.7
74
0
0
LTYPE
5
41
330
5
100
AcDbSymbolTableRecord
100
AcDbLinetypeTableRecord
2
CENTER
70
0
3
Center ____ _ ____ _ ____ _ ____ _ ____ _ ____
72
65
73
4
40
50.8
49
31.75
74
0
49
-6.35
74
0
49
6.35
74
0
49
-6.35
74
0
0
LTYPE
5
42
330
5
100
AcDbSymbolTableRecord
100
AcDbLinetypeTableRecord
2
CENTER2
70
0
3
Center (.5x) ___ _ ___ _ ___ _ ___ _ ___ _ ___
72
65
73
4
40
28.575
49
19.05
74
0
49
-3.175
74
0
49
3.175
74
0
49
-3.175
74
0
0
LTYPE
5
43
330
5
100
AcDbSymbolTableRecord
100
AcDbLinetypeTableRecord
2
CENTERX2
70
0
3
Center (2x) ________  __  ________  __  _____
72
65
73
4
40
101.6
49
63.5
74
0
49
-12.7
74
0
49
12.7
74
0
49
-12.7
74
0
0
ENDTAB
0
TABLE
2
LAYER
5
2
330
0
100
AcDbSymbolTable
70
1
0
LAYER
5
10
330
2
100
AcDbSymbolTableRecord
100
AcDbLayerTableRecord
2
0
70
0
62
7
6
CONTINUOUS
370
0
390
F
0
LAYER
5
44
330
2
100
AcDbSymbolTableRecord
100
AcDbLayerTableRecord
2
Dimensions
70
0
62
7
6
DOT2
370
0
390
F
0
LAYER
5
45
330
2
100
AcDbSymbolTableRecord
100
AcDbLayerTableRecord
2
Pen
70
0
62
2
6
CONTINUOUS
370
0
390
F
0
LAYER
5
46
330
2
100
AcDbSymbolTableRecord
100
AcDbLayerTableRecord
2
RadiusArms
70
0
62
1
6
CONTINUOUS
370
0
390
F
0
LAYER
5
47
330
2
100
AcDbSymbolTableRecord
100
AcDbLayerTableRecord
2
guides
70
0
62
3
6
CONTINUOUS
290
0
370
0
390
F
0
ENDTAB
0
TABLE
2
STYLE
5
3
330
0
100
AcDbSymbolTable
70
3
0
STYLE
5
48
330
2
100
AcDbSymbolTableRecord
100
AcDbTextStyleTableRecord
2
Standard
70
0
40
0
41
1
50
0
71
0
42
1
3
txt
4

0
ENDTAB
0
TABLE
2
VIEW
5
6
330
0
100
AcDbSymbolTable
70
0
0
ENDTAB
0
TABLE
2
UCS
5
7
330
0
100
AcDbSymbolTable
70
0
0
ENDTAB
0
TABLE
2
APPID
5
9
330
0
100
AcDbSymbolTable
70
1
0
APPID
5
12
330
9
100
AcDbSymbolTableRecord
100
AcDbRegAppTableRecord
2
ACAD
70
0
0
ENDTAB
0
TABLE
2
DIMSTYLE
5
A
330
0
100
AcDbSymbolTable
70
1
100
AcDbDimStyleTable
71
1
0
DIMSTYLE
105
49
330
A
100
AcDbSymbolTableRecord
100
AcDbDimStyleTableRecord
2
Standard
70
0
40
1
41
2.5
42
0.625
43
0.38
44
1.25
45
0
46
0
47
0
48
0
140
2.5
141
0.09
142
0
143
25.4
144
1
145
0
146
1
147
0.625
148
0
71
0
72
0
73
0
74
1
75
0
76
0
77
0
78
0
79
0
170
0
171
2
172
0
173
0
174
0
175
0
176
0
177
0
178
0
179
0
271
4
272
4
273
2
274
2
275
0
276
0
277
2
278
46
279
0
280
0
281
0
282
0
283
1
284
0
285
0
286
0
288
0
289
3
340
Standard
341

371
-2
372
-2
0
ENDTAB
0
TABLE
2
BLOCK_RECORD
5
1
330
0
100
AcDbSymbolTable
70
2
0
BLOCK_RECORD
5
1F
330
1
100
AcDbSymbolTableRecord
100
AcDbBlockTableRecord
2
*Model_Space
70
0
280
1
281
0
0
BLOCK_RECORD
5
1E
330
1
100
AcDbSymbolTableRecord
100
AcDbBlockTableRecord
2
*Paper_Space
70
0
280
1
281
0
0
BLOCK_RECORD
5
4A
330
1
100
AcDbSymbolTableRecord
100
AcDbBlockTableRecord
2
*D2
70
0
280
1
281
0
0
BLOCK_RECORD
5
4D
330
1
100
AcDbSymbolTableRecord
100
AcDbBlockTableRecord
2
*D1
70
0
280
1
281
0
0
BLOCK_RECORD
5
50
330
1
100
AcDbSymbolTableRecord
100
AcDbBlockTableRecord
2
*D3
70
0
280
1
281
0
0
BLOCK_RECORD
5
53
330
1
100
AcDbSymbolTableRecord
100
AcDbBlockTableRecord
2
*D4
70
0
280
1
281
0
0
BLOCK_RECORD
5
56
330
1
100
AcDbSymbolTableRecord
100
AcDbBlockTableRecord
2
*D5
70
0
280
1
281
0
0
ENDTAB
0
ENDSEC
0
SECTION
2
BLOCKS
0
BLOCK
5
20
330
1F
100
AcDbEntity
8
0
100
AcDbBlockBegin
2
*Model_Space
70
0
10
0
20
0
30
0
3
*Model_Space
1

0
ENDBLK
5
21
330
1F
100
AcDbEntity
8
0
100
AcDbBlockEnd
0
BLOCK
5
1C
330
1B
100
AcDbEntity
8
0
100
AcDbBlockBegin
2
*Paper_Space
70
0
10
0
20
0
30
0
3
*Paper_Space
1

0
ENDBLK
5
1D
330
1F
100
AcDbEntity
8
0
100
AcDbBlockEnd
0
BLOCK
5
4B
330
4A
100
AcDbEntity
8
0
100
AcDbBlockBegin
2
*D2
70
1
10
0
20
0
3
*D2
1

0
LINE
5
59
100
AcDbEntity
8
RadiusArms
6
CONTINUOUS
62
7
370
0
100
AcDbLine
10
200.588448424
20
-100.210602594
11
216.881222767
21
-106.04170078
0
LINE
5
5A
100
AcDbEntity
8
RadiusArms
6
CONTINUOUS
62
7
370
0
100
AcDbLine
10
217.436655927
20
-53.1347286886
11
233.72943027
21
-58.9658268747
0
LINE
5
5B
100
AcDbEntity
8
RadiusArms
6
CONTINUOUS
62
7
370
0
100
AcDbLine
10
215.70432592
20
-105.620495592
11
232.552533423
21
-58.5446216871
0
SOLID
5
5C
100
AcDbEntity
8
RadiusArms
6
CONTINUOUS
62
7
370
0
100
AcDbTrace
10
215.70432592
20
-105.620495592
30
0
11
216.154797014
21
-103.126428891
31
0
12
216.938675576
22
-103.406974903
32
0
13
216.938675576
23
-103.406974903
33
0
0
SOLID
5
5D
100
AcDbEntity
8
RadiusArms
6
CONTINUOUS
62
7
370
0
100
AcDbTrace
10
232.552533423
20
-58.5446216871
30
0
11
232.102062329
21
-61.0386883882
31
0
12
231.318183766
22
-60.7581423764
32
0
13
231.318183766
23
-60.7581423764
33
0
0
MTEXT
5
5E
100
AcDbEntity
8
RadiusArms
6
CONTINUOUS
62
7
370
0
100
AcDbMText
10
222.3630844
20
-81.4507508583
30
0
40
2.5
41
3.05555555556
71
5
72
1
1
50
7
standard
210
0
220
0
230
1
50
70.3079787613
73
2
44
1
0
ENDBLK
5
4C
330
4A
100
AcDbEntity
8
0
100
AcDbBlockEnd
0
BLOCK
5
4E
330
4D
100
AcDbEntity
8
0
100
AcDbBlockBegin
2
*D1
70
1
10
0
20
0
3
*D1
1

0
LINE
5
5F
100
AcDbEntity
8
RadiusArms
6
CONTINUOUS
62
7
370
0
100
AcDbLine
10
-0.335048650702
20
-100.527605347
11
-7.65458442552
21
-112.053770877
0
LINE
5
60
100
AcDbEntity
8
RadiusArms
6
CONTINUOUS
62
7
370
0
100
AcDbLine
10
33.4316935258
20
-121.970718991
11
26.1121577509
21
-133.496884522
0
LINE
5
61
100
AcDbEntity
8
RadiusArms
6
CONTINUOUS
62
7
370
0
100
AcDbLine
10
-6.98448712412
20
-110.998560184
11
26.7822550523
21
-132.441673829
0
SOLID
5
62
100
AcDbEntity
8
RadiusArms
6
CONTINUOUS
62
7
370
0
100
AcDbTrace
10
-6.98448712412
20
-110.998560184
30
0
11
-4.65090475746
21
-111.987340369
31
0
12
-5.09722671872
22
-112.690169205
32
0
13
-5.09722671872
23
-112.690169205
33
0
0
SOLID
5
63
100
AcDbEntity
8
RadiusArms
6
CONTINUOUS
62
7
370
0
100
AcDbTrace
10
26.7822550523
20
-132.441673829
30
0
11
24.4486726857
21
-131.452893644
31
0
12
24.8949946469
22
-130.750064808
32
0
13
24.8949946469
23
-130.750064808
33
0
0
MTEXT
5
64
100
AcDbEntity
8
RadiusArms
6
CONTINUOUS
62
7
370
0
100
AcDbMText
10
10.9040299162
20
-120.137300967
30
0
40
2.5
41
3.33333333333
71
5
72
1
1
40
7
standard
210
0
220
0
230
1
50
327.582962494
73
2
44
1
0
ENDBLK
5
4F
330
4D
100
AcDbEntity
8
0
100
AcDbBlockEnd
0
BLOCK
5
51
330
50
100
AcDbEntity
8
0
100
AcDbBlockBegin
2
*D3
70
1
10
0
20
0
3
*D3
1

0
LINE
5
65
100
AcDbEntity
8
0
6
CONTINUOUS
62
7
370
0
100
AcDbLine
10
2.8306898793e-14
20
-100.625
11
2.47657081951e-14
21
-119.90234375
0
LINE
5
66
100
AcDbEntity
8
0
6
CONTINUOUS
62
7
370
0
100
AcDbLine
10
200
20
-100.625
11
200
21
-119.90234375
0
LINE
5
67
100
AcDbEntity
8
0
6
CONTINUOUS
62
7
370
0
100
AcDbLine
10
2.49953294699e-14
20
-118.65234375
11
200
21
-118.65234375
0
SOLID
5
68
100
AcDbEntity
8
0
6
CONTINUOUS
62
7
370
0
100
AcDbTrace
10
2.49953294699e-14
20
-118.65234375
30
0
11
2.5
21
-118.236059092
31
0
12
2.5
22
-119.068628408
32
0
13
2.5
23
-119.068628408
33
0
0
SOLID
5
69
100
AcDbEntity
8
0
6
CONTINUOUS
62
7
370
0
100
AcDbTrace
10
200
20
-118.65234375
30
0
11
197.5
21
-119.068628408
31
0
12
197.5
22
-118.236059092
32
0
13
197.5
23
-118.236059092
33
0
0
MTEXT
5
6A
100
AcDbEntity
8
0
6
CONTINUOUS
62
7
370
0
100
AcDbMText
10
100
20
-116.77734375
30
0
40
2.5
41
5
71
5
72
1
1
200
7
standard
210
0
220
0
230
1
50
0
73
2
44
1
0
ENDBLK
5
52
330
50
100
AcDbEntity
8
0
100
AcDbBlockEnd
0
BLOCK
5
54
330
53
100
AcDbEntity
8
0
100
AcDbBlockBegin
2
*D4
70
1
10
0
20
0
3
*D4
1

0
SOLID
5
6B
100
AcDbEntity
8
0
6
CONTINUOUS
62
7
370
0
100
AcDbTrace
10
20
20
1.83909575267e-15
30
0
11
22.5
21
0.416284657773
31
0
12
22.5
22
-0.416284657773
32
0
13
22.5
23
-0.416284657773
33
0
0
LINE
5
6C
100
AcDbEntity
8
0
6
CONTINUOUS
62
7
370
0
100
AcDbLine
10
100
20
4.18367562816e-13
11
20
21
1.83909575267e-15
0
MTEXT
5
6D
100
AcDbEntity
8
0
6
CONTINUOUS
62
7
370
0
100
AcDbMText
10
60
20
1.875
30
0
40
2.5
41
3.05555555556
71
5
72
1
1
80
7
standard
210
0
220
0
230
1
50
3.0533324942e-13
73
2
44
1
0
ENDBLK
5
55
330
53
100
AcDbEntity
8
0
100
AcDbBlockEnd
0
BLOCK
5
57
330
56
100
AcDbEntity
8
0
100
AcDbBlockBegin
2
*D5
70
1
10
0
20
0
3
*D5
1

0
LINE
5
6E
100
AcDbEntity
8
RadiusArms
6
CONTINUOUS
62
7
370
0
100
AcDbLine
10
217.169903044
20
-52.3882744562
11
226.023882414
21
-37.6401081223
0
LINE
5
6F
100
AcDbEntity
8
RadiusArms
6
CONTINUOUS
62
7
370
0
100
AcDbLine
10
82.5639714202
20
28.4216455511
11
91.4179507902
21
43.1698118849
0
LINE
5
70
100
AcDbEntity
8
RadiusArms
6
CONTINUOUS
62
7
370
0
100
AcDbLine
10
225.380491332
20
-38.7118113996
11
90.7745597074
21
42.0981086077
0
SOLID
5
71
100
AcDbEntity
8
RadiusArms
6
CONTINUOUS
62
7
370
0
100
AcDbTrace
10
225.380491332
20
-38.7118113996
30
0
11
223.022817708
21
-37.7819361395
31
0
12
223.451351846
22
-37.0681223283
32
0
13
223.451351846
23
-37.0681223283
33
0
0
SOLID
5
72
100
AcDbEntity
8
RadiusArms
6
CONTINUOUS
62
7
370
0
100
AcDbTrace
10
90.7745597074
20
42.0981086077
30
0
11
93.1322333313
21
41.1682333476
31
0
12
92.7036991925
22
40.4544195363
32
0
13
92.7036991925
23
40.4544195363
33
0
0
MTEXT
5
73
100
AcDbEntity
8
RadiusArms
6
CONTINUOUS
62
7
370
0
100
AcDbMText
10
159.042612144
20
3.30070351994
30
0
40
2.5
41
4.44444444444
71
5
72
1
1
157
7
standard
210
0
220
0
230
1
50
329.021735498
73
2
44
1
0
ENDBLK
5
58
330
56
100
AcDbEntity
8
0
100
AcDbBlockEnd
0
ENDSEC
0
SECTION
2
ENTITIES
0
LINE
5
74
100
AcDbEntity
8
Dimensions
6
ByLayer
62
256
370
-1
100
AcDbLine
10
0
20
-100
11
200
21
-100
0
LINE
5
75
100
AcDbEntity
8
Dimensions
6
ByLayer
62
256
370
-1
100
AcDbLine
10
0
20
-100
11
100
21
4.11992261159e-13
0
LINE
5
76
100
AcDbEntity
8
Dimensions
6
ByLayer
62
256
370
-1
100
AcDbLine
10
100
20
4.11992261159e-13
11
200
21
-100
0
CIRCLE
5
77
100
AcDbEntity
8
Dimensions
6
ByLayer
62
256
370
-1
100
AcDbCircle
10
0
20
-100
40
40
0
CIRCLE
5
78
100
AcDbEntity
8
Dimensions
6
ByLayer
62
256
370
-1
100
AcDbCircle
10
200
20
-100
40
50
0
CIRCLE
5
79
100
AcDbEntity
8
Dimensions
6
ByLayer
62
256
370
-1
100
AcDbCircle
10
100
20
4.18367562816e-13
40
80
0
LINE
5
7A
100
AcDbEntity
8
RadiusArms
6
ByLayer
62
256
370
-1
100
AcDbLine
10
0
20
-100
11
33.7667421765
21
-121.443113645
0
LINE
5
7B
100
AcDbEntity
8
RadiusArms
6
ByLayer
62
256
370
-1
100
AcDbLine
10
200
20
-100
11
216.848207503
21
-52.9241260948
0
DIMENSION
5
7C
100
AcDbEntity
8
RadiusArms
6
ByLayer
62
256
370
-1
100
AcDbDimension
2
*D1
10
26.7822550523
20
-132.441673829
30
0
11
10.9040299162
21
-120.137300967
31
0
70
33
71
5
3
Standard
53
0
210
0
220
0
230
1
100
AcDbAlignedDimension
13
0
23
-100
33
0
14
33.7667421765
24
-121.443113645
34
0
0
DIMENSION
5
7D
100
AcDbEntity
8
RadiusArms
6
ByLayer
62
256
370
-1
100
AcDbDimension
2
*D2
10
232.552533423
20
-58.5446216871
30
0
11
222.3630844
21
-81.4507508583
31
0
70
33
71
5
3
Standard
53
0
210
0
220
0
230
1
100
AcDbAlignedDimension
13
200
23
-100
33
0
14
216.848207503
24
-52.9241260948
34
0
0
DIMENSION
5
7E
100
AcDbEntity
8
0
6
ByLayer
62
256
370
-1
100
AcDbDimension
2
*D3
10
200
20
-118.65234375
30
0
11
100
21
-116.77734375
31
0
70
33
71
5
3
Standard
53
0
210
0
220
0
230
1
100
AcDbAlignedDimension
13
2.84217094304e-14
23
-100
33
0
14
200
24
-100
34
0
0
DIMENSION
5
7F
100
AcDbEntity
8
0
6
ByLayer
62
256
370
-1
100
AcDbDimension
2
*D4
10
100
20
4.18367562816e-13
30
0
11
60
21
1.875
31
0
70
36
71
5
3
Standard
53
0
210
0
220
0
230
1
100
AcDbRadialDimension
15
20
25
1.83909575267e-15
35
0
40
0
0
CIRCLE
5
80
100
AcDbEntity
8
guides
6
ByLayer
62
256
370
-1
100
AcDbCircle
10
33.7667421765
20
-121.443113645
40
157
0
CIRCLE
5
81
100
AcDbEntity
8
guides
6
ByLayer
62
256
370
-1
100
AcDbCircle
10
216.848207503
20
-52.9241260948
40
157
0
CIRCLE
5
82
100
AcDbEntity
8
Pen
6
ByLayer
62
256
370
140
100
AcDbCircle
10
82.2422758787
20
27.8857939125
40
2
0
LINE
5
83
100
AcDbEntity
8
RadiusArms
6
ByLayer
62
256
370
-1
100
AcDbLine
10
82.2422758787
20
27.8857939125
11
216.848207503
21
-52.9241260948
0
LINE
5
84
100
AcDbEntity
8
RadiusArms
6
ByLayer
62
256
370
-1
100
AcDbLine
10
33.7667421765
20
-121.443113645
11
82.2422758787
21
27.8857939125
0
DIMENSION
5
85
100
AcDbEntity
8
RadiusArms
6
ByLayer
62
256
370
-1
100
AcDbDimension
2
*D5
10
90.7745597074
20
42.0981086077
30
0
11
159.042612144
21
3.30070351994
31
0
70
33
71
5
3
Standard
53
0
210
0
220
0
230
1
100
AcDbAlignedDimension
13
216.848207503
23
-52.9241260948
33
0
14
82.2422758787
24
27.8857939125
34
0
0
ENDSEC
0
SECTION
2
OBJECTS
0
DICTIONARY
5
C
330
0
100
AcDbDictionary
281
1
3
ACAD_GROUP
350
D
0
DICTIONARY
5
D
330
C
100
AcDbDictionary
281
1
0
ENDSEC
0
EOF
